<?xml version="1.0" encoding="UTF-8" standalone="no"?>
<!-- Created with Inkscape (http://www.inkscape.org/) -->

<svg
   version="1.1"
   id="svg18"
   width="745.72247"
   height="745.3598"
   viewBox="0 0 745.72247 745.3598"
   sodipodi:docname="logo"
   inkscape:version="1.2.2 (732a01da63, 2022-12-09, custom)"
   xmlns:inkscape="http://www.inkscape.org/namespaces/inkscape"
   xmlns:sodipodi="http://sodipodi.sourceforge.net/DTD/sodipodi-0.dtd"
   xmlns="http://www.w3.org/2000/svg"
   xmlns:svg="http://www.w3.org/2000/svg">
  <defs
     id="defs22" />
  <sodipodi:namedview
     id="namedview20"
     pagecolor="#ffffff"
     bordercolor="#000000"
     borderopacity="0.25"
     inkscape:showpageshadow="2"
     inkscape:pageopacity="0.0"
     inkscape:pagecheckerboard="0"
     inkscape:deskcolor="#d1d1d1"
     showgrid="false"
     inkscape:zoom="0.80903491"
     inkscape:cx="686.00254"
     inkscape:cy="331.25888"
     inkscape:window-width="1920"
     inkscape:window-height="973"
     inkscape:window-x="0"
     inkscape:window-y="0"
     inkscape:window-maximized="1"
     inkscape:current-layer="g24" />
  <g
     inkscape:groupmode="layer"
     inkscape:label="Image"
     id="g24"
     transform="translate(-244.2562,-57.471883)">
    <path
       style="fill:#000000"
       d="m 589.35749,801.74992 c -58.88882,-4.63757 -113.91494,-22.1009 -163.4958,-51.88774 -17.89697,-10.75202 -16.74543,-8.92491 -12.5202,-19.8654 C 455.20226,621.60543 524.78423,545.80777 589.4263,538.18245 l 5.06881,-0.59793 2.73734,6.36638 c 12.45742,28.97302 41.01278,69.68656 64.83916,92.4461 59.21839,56.56684 120.72236,75.99017 202.17996,63.84966 5.4417,-0.81104 10.0052,-1.35194 10.1411,-1.20199 0.4759,0.52499 -18.5219,17.07423 -28.7305,25.0276 -72.5389,56.51383 -165.87,84.79948 -256.30468,77.67765 z m -192.5,-71.10174 C 198.75554,582.18106 192.51079,292.87324 384.08885,139.10041 567.78207,-8.3435274 842.87677,50.925412 948.78272,260.76325 c 72.56298,143.77366 48.0832,307.39224 -64.09275,428.38415 l -6.3325,6.8301 -13.5,-4.70242 C 756.26402,653.44895 679.48412,578.66781 653.9082,485.81729 c -1.74224,-6.325 -4.04058,-14.425 -5.10741,-18 -1.73619,-5.81798 -7.9433,-29.62927 -7.9433,-30.47151 0,-0.18499 2.21288,0.50448 4.9175,1.53216 81.26359,30.87773 166.04168,9.58338 233.83248,-58.73349 16.08255,-16.2073 18.86595,-19.70823 13.50005,-16.98061 -4.50245,2.28872 -25.88055,9.54366 -38.75005,13.15035 -108.96096,30.53633 -219.09603,9.86847 -285.05715,-53.49362 -73.8898,-70.97835 -159.92165,-99.30047 -259.44283,-85.40989 -13.79608,1.92558 -13.712,1.87387 -6.35749,3.9096 120.71551,33.41399 212.24095,99.3318 251.31042,180.99701 8.59052,17.95639 17.84658,45.20282 15.93393,46.90363 -0.21277,0.1892 -5.48532,1.7569 -11.71677,3.48376 -106.88953,29.62132 -165.54157,125.98991 -152.22403,250.11261 1.90974,17.79932 2.61455,17.24441 -9.94606,7.83089 z m 300.1859,-381.28261 c 59.15177,-12.53651 81.93488,-84.93092 40.62577,-129.09046 -46.93078,-50.16914 -131.29082,-18.51146 -133.59469,50.13389 -1.71195,51.00844 43.5329,89.43394 92.96892,78.95657 z"
       id="path132" />
  </g>
</svg>
